<svg xmlns="http://www.w3.org/2000/svg" width="51.5" height="51.5" viewBox="0 0 51.5 51.5">
  <g id="user-certification" transform="translate(-2.25 -2.25)">
    <g id="Path_16" data-name="Path 16" transform="translate(12.857 5.714)" fill="none">
      <path d="M31.7,11.25l2.93,5.518,6.267.762-4.6,4.145.92,6.129L31.7,24.356,26.179,27.8l.92-6.131-4.6-4.145,6.438-.76L31.7,11.25Z" stroke="none"/>
      <path d="M 31.75040435791016 15.61642265319824 L 30.24440765380859 18.62752532958984 L 27.11728668212891 18.99677658081055 L 29.23645782470703 20.90651512145996 L 28.80108261108398 23.80641555786133 L 31.6964282989502 21.99714469909668 L 34.59157943725586 23.80629539489746 L 34.15635681152344 20.90819549560547 L 36.29054260253906 18.98492240905762 L 33.34906768798828 18.62731552124023 L 31.75040435791016 15.61642265319824 M 31.6964282989502 11.2499942779541 L 31.69805908203125 11.2499942779541 L 31.69726753234863 11.2515754699707 L 31.6964282989502 11.2499942779541 Z M 31.69726753234863 11.2515754699707 L 34.62620544433594 16.76785469055176 L 40.89286041259766 17.52972412109375 L 36.29383087158203 21.67425537109375 L 37.21428680419922 27.80356597900391 L 31.6964282989502 24.35552597045898 L 26.17856979370117 27.80356597900391 L 27.09902954101562 21.67261505126953 L 22.5 17.52809524536133 L 28.93832015991211 16.76785469055176 L 31.69726753234863 11.2515754699707 Z" stroke="none" fill="#07f"/>
    </g>
    <path id="Path_17" data-name="Path 17" d="M39.036,42.321H35.357v-9.2a9.208,9.208,0,0,0-9.2-9.2H15.125a9.208,9.208,0,0,0-9.2,9.2v9.2H2.25v-9.2A12.89,12.89,0,0,1,15.125,20.25H26.161A12.89,12.89,0,0,1,39.036,33.125Z" transform="translate(0 11.429)" fill="#161616"/>
    <path id="Path_18" data-name="Path 18" d="M18.5,5.929a9.2,9.2,0,1,1-9.2,9.2,9.2,9.2,0,0,1,9.2-9.2m0-3.679A12.875,12.875,0,1,0,31.375,15.125,12.875,12.875,0,0,0,18.5,2.25Z" transform="translate(2.143 0)" fill="#161616"/>
  </g>
</svg>
