<svg xmlns="http://www.w3.org/2000/svg" width="51.9" height="51.5" viewBox="0 0 51.9 51.5">
  <g id="Group_38" data-name="Group 38" transform="translate(-1401 -179.8)">
    <g id="talk-bubbles-solid" transform="translate(1431.842 188.667)">
      <g id="Path_27" data-name="Path 27" transform="translate(0 -2.818)" fill="none">
        <path d="M5.585,15.779V11H3.792A1.792,1.792,0,0,0,2,12.792V23.546a.583.583,0,0,0,.932.472l3.077-2.264h8.029a1.655,1.655,0,0,0,1.7-1.715v-.675H9.169a3.585,3.585,0,0,1-3.585-3.585Z" stroke="none"/>
        <path d="M 3.792261123657227 11 L 5.58452033996582 11 L 5.58452033996582 15.77936172485352 C 5.58452033996582 17.75903129577637 7.189360618591309 19.3638801574707 9.169040679931641 19.3638801574707 L 15.74065017700195 19.3638801574707 L 15.74065017700195 20.03895950317383 C 15.75738048553467 20.49653053283691 15.58378028869629 20.94058227539062 15.26114082336426 21.26548004150391 C 14.93851089477539 21.59038162231445 14.49567699432373 21.76709175109863 14.03800106048584 21.7535514831543 L 6.00869083404541 21.7535514831543 L 2.931970596313477 24.01778030395508 C 2.758030891418457 24.14358139038086 2.529960632324219 24.1663818359375 2.334550857543945 24.07752227783203 C 2.131330490112305 23.97795104980469 2.001811027526855 23.7721004486084 2.000000953674316 23.54581069946289 L 2.000000953674316 12.79226112365723 C 2.000000953674316 11.80242156982422 2.802420616149902 11 3.792261123657227 11 Z" stroke="none" fill="#07f"/>
      </g>
      <g id="Path_28" data-name="Path 28" transform="translate(-3.623)" fill="none">
        <path d="M22.948,4H12.792A1.792,1.792,0,0,0,11,5.792v7.169a1.792,1.792,0,0,0,1.792,1.792h8.1l2.856,2.216a.584.584,0,0,0,.938-.472V5.792A1.792,1.792,0,0,0,22.948,4Z" stroke="none"/>
        <path d="M 14.00000381469727 6.999995231628418 L 14.00000381469727 11.75355529785156 L 21.68090438842773 11.75355529785156 L 21.68090438842773 6.999995231628418 L 14.00000381469727 6.999995231628418 M 12.79226303100586 3.999994277954102 L 22.94839286804199 3.999994277954102 C 23.91482162475586 4.032236099243164 24.68144226074219 4.825294494628906 24.68090438842773 5.792255401611328 L 24.68090438842773 16.49801635742188 C 24.68025207519531 16.72782516479492 24.54785346984863 16.93688583374023 24.34038162231445 17.03569412231445 C 24.14391136169434 17.12284469604492 23.9157829284668 17.09775543212891 23.74296188354492 16.96997451782227 L 20.88729286193848 14.75355529785156 L 12.79226303100586 14.75355529785156 C 11.80242347717285 14.75355529785156 11.00000381469727 13.95113563537598 11.00000381469727 12.96129512786865 L 11.00000381469727 5.792255401611328 C 11.00000381469727 4.802425384521484 11.80242347717285 3.999994277954102 12.79226303100586 3.999994277954102 Z" stroke="none" fill="#07f"/>
      </g>
    </g>
    <g id="user-certification" transform="translate(1398.75 177.55)">
      <path id="Path_17" data-name="Path 17" d="M39.036,42.321H35.357v-9.2a9.208,9.208,0,0,0-9.2-9.2H15.125a9.208,9.208,0,0,0-9.2,9.2v9.2H2.25v-9.2A12.89,12.89,0,0,1,15.125,20.25H26.161A12.89,12.89,0,0,1,39.036,33.125Z" transform="translate(0 11.429)" fill="#161616"/>
      <path id="Path_18" data-name="Path 18" d="M18.5,5.929a9.2,9.2,0,1,1-9.2,9.2,9.2,9.2,0,0,1,9.2-9.2m0-3.679A12.875,12.875,0,1,0,31.375,15.125,12.875,12.875,0,0,0,18.5,2.25Z" transform="translate(2.143 0)" fill="#161616"/>
    </g>
  </g>
</svg>
