<svg xmlns="http://www.w3.org/2000/svg" xmlns:xlink="http://www.w3.org/1999/xlink" width="238.597" height="82.441" viewBox="0 0 238.597 82.441">
  <defs>
    <clipPath id="clip-path">
      <rect id="Rectangle_52" data-name="Rectangle 52" width="35.915" height="50.829" transform="translate(0 0)" fill="#fff" stroke="#07f" stroke-width="8.75"/>
    </clipPath>
    <clipPath id="clip-path-2">
      <rect id="Rectangle_53" data-name="Rectangle 53" width="35.61" height="50.829" transform="translate(0 0)" fill="#fff" stroke="#07f" stroke-width="8.75"/>
    </clipPath>
    <radialGradient id="radial-gradient" cx="0.7" cy="0.5" r="0.5" gradientUnits="objectBoundingBox">
      <stop offset="0" stop-color="#07f" stop-opacity="0"/>
      <stop offset="1" stop-color="#07f"/>
    </radialGradient>
    <linearGradient id="linear-gradient" x1="0.5" x2="0.5" y2="1" gradientUnits="objectBoundingBox">
      <stop offset="0" stop-color="#07f"/>
      <stop offset="1" stop-color="#07f"/>
    </linearGradient>
    <linearGradient id="linear-gradient-2" x1="0.5" x2="0.5" y2="1" gradientUnits="objectBoundingBox">
      <stop offset="0" stop-color="#07f"/>
      <stop offset="0.441" stop-color="#07f"/>
      <stop offset="1" stop-color="#07f" stop-opacity="0"/>
    </linearGradient>
    <linearGradient id="linear-gradient-3" x1="0.5" x2="0.5" y2="1.417" gradientUnits="objectBoundingBox">
      <stop offset="0" stop-color="#07f"/>
      <stop offset="0.325" stop-color="#07f"/>
      <stop offset="1" stop-color="#07f" stop-opacity="0"/>
    </linearGradient>
  </defs>
  <g id="Group_20" data-name="Group 20" transform="translate(0 1.641)">
    <text id="People_MEtrics" data-name="People
MEtrics" transform="translate(87.597 35.359)" fill="#07f" font-size="34" font-family="SegoeUI, Segoe UI" letter-spacing="0.08em"><tspan x="0" y="0">PEOPLE</tspan><tspan fill="#161616"><tspan x="0" y="32">METRICS</tspan></tspan></text>
    <g id="Group_17" data-name="Group 17" transform="translate(0 0)">
      <g id="Group_15" data-name="Group 15" transform="translate(0 26.071)">
        <g id="Group_14" data-name="Group 14" transform="translate(0 3.9)">
          <g id="Mask_Group_1" data-name="Mask Group 1" transform="translate(71.525 50.829) rotate(180)" clip-path="url(#clip-path)">
            <path id="Path_83" data-name="Path 83" d="M32.328,45.9c-4.841,0-9.616-.749-12.239-2.414a4.3,4.3,0,0,1-2.343-3.922c.073-1.458.122-3.511.151-5.852a60.163,60.163,0,0,1-6.377.164C6.19,33.686-.135,32.652,0,28.812.171,24.085,0,1.92,0,1.7A1.683,1.683,0,0,1,3.368,1.67c.007.915.171,22.462,0,27.262.194.2,2.124,1.294,7.775,1.559a49.115,49.115,0,0,0,6.784-.155c.036-7.371-.069-15.963-.18-18.209a3.791,3.791,0,0,1,1.942-3.491,7.215,7.215,0,0,1,6.827.012,3.8,3.8,0,0,1,1.987,3.47c-.072,1.656-.036,4.749,0,7.945.038,3.333.075,6.774,0,8.87-.09,2.5-3.5,3.756-7.235,4.377-.029,2.577-.079,4.846-.159,6.425-.018.348.484.719.784.91,4.017,2.55,17.157,2.525,21.969-.041.827-.441,1.133-.837,1.137-1,.035-1.377.043-3.49.039-5.95-3.367-.609-6.667-1.922-6.766-4.725-.089-2.546-.042-6.07,0-9.347.041-3.047.082-5.875,0-7.451A3.5,3.5,0,0,1,40.05,8.867a6.858,6.858,0,0,1,6.534.173,3.385,3.385,0,0,1,1.777,3.113c-.083,1.277-.043,7.008-.005,12.551.014,2,.028,4.047.037,5.99q.666.051,1.407.081c6.677.258,11.1-1.2,11.5-2.028.129-4.553-.014-26.828-.016-27.053a1.683,1.683,0,1,1,3.367-.022c.006.919.145,22.564,0,27.252-.151,4.844-10.212,5.239-13.291,5.245-.693,0-1.745-.017-2.958-.1,0,2.32-.007,4.307-.04,5.625-.027,1.075-.556,2.621-2.918,3.882C42.661,45.058,37.458,45.9,32.328,45.9ZM43.064,11.493q-.118,0-.24.007a1.754,1.754,0,0,0-1.184.366c.08,1.713.042,4.626,0,7.764-.044,3.219-.092,6.682,0,9.183.114.278,1.117.933,3.388,1.417-.009-1.8-.022-3.668-.035-5.5-.042-6.115-.078-11.4.012-12.792A4.214,4.214,0,0,0,43.064,11.493Zm-20-.343a3.333,3.333,0,0,0-1.644.371c-.328.2-.321.338-.316.441.11,2.221.214,10.576.184,17.918,2.125-.393,3.575-.9,3.93-1.359-.011-1.767-.05-5.147-.087-8.42s-.071-6.434,0-8.129c0-.077.01-.219-.343-.429A3.54,3.54,0,0,0,23.068,11.15Z" transform="translate(3.752 2.543)" fill="#07f"/>
          </g>
          <g id="Mask_Group_2" data-name="Mask Group 2" transform="translate(35.61 50.829) rotate(180)" clip-path="url(#clip-path-2)">
            <path id="Path_84" data-name="Path 84" d="M62.29,45.888h-.011a1.683,1.683,0,0,1-1.672-1.694c0-.224.143-22.5,0-27.126-.381-.763-4.775-2.226-11.422-1.951q-.679.028-1.293.076c-.009,1.943-.023,3.99-.037,5.991-.038,5.543-.076,11.275.005,12.552a3.394,3.394,0,0,1-1.781,3.121,6.778,6.778,0,0,1-6.455.171,3.5,3.5,0,0,1-1.778-3.272c.082-1.576.042-4.4,0-7.452-.044-3.276-.09-6.8,0-9.346.1-2.8,3.359-4.114,6.69-4.724,0-2.461,0-4.575-.038-5.953,0-.14-.248-.533-1.146-1.012-4.737-2.529-17.685-2.554-21.647-.042-.3.193-.812.57-.795.929.079,1.58.129,3.85.157,6.427,3.7.621,7.066,1.874,7.155,4.374.074,2.1.037,5.537,0,8.869-.036,3.2-.072,6.29,0,7.946a3.8,3.8,0,0,1-1.989,3.478,7.127,7.127,0,0,1-6.742.012,3.8,3.8,0,0,1-1.944-3.5c.11-2.247.214-10.849.178-18.223a49.9,49.9,0,0,0-6.7-.141c-5.154.246-7.408,1.262-7.692,1.716.2,4.643.042,26.19.035,27.1A1.683,1.683,0,0,1,0,44.191C0,43.968.17,21.8,0,17.075-.134,13.228,6.152,12.2,11.448,12.01a58.884,58.884,0,0,1,6.25.164c-.029-2.34-.077-4.394-.149-5.852A4.319,4.319,0,0,1,19.9,2.383C25.242-1,39.6-.552,44.938,2.3c2.37,1.265,2.9,2.818,2.926,3.9.033,1.318.043,3.3.04,5.623,1.191-.085,2.223-.1,2.9-.1,3.05.006,13.015.4,13.164,5.246.144,4.689.007,26.333,0,27.252A1.683,1.683,0,0,1,62.29,45.888Zm-41.2-29.923c.03,7.352-.073,15.735-.182,17.96-.005.106-.012.252.317.451a3.754,3.754,0,0,0,3.286-.022c.355-.211.348-.359.345-.439-.073-1.694-.039-4.859,0-8.128s.075-6.653,0-8.712A9.885,9.885,0,0,0,21.093,15.965Zm23.431-.3c-2.227.485-3.206,1.141-3.317,1.434-.083,2.479-.035,5.942.008,9.161.042,3.138.079,6.05-.005,7.672,0,.07-.01.188.423.329a3.365,3.365,0,0,0,2.9-.442c-.119-1.262-.083-6.543-.042-12.657C44.5,19.327,44.515,17.456,44.524,15.663Z" transform="translate(31.832 48.43) rotate(-180)" fill="#07f"/>
          </g>
        </g>
        <path id="Subtraction_3" data-name="Subtraction 3" d="M7.458,14.914a7.457,7.457,0,1,1,7.456-7.456A7.465,7.465,0,0,1,7.458,14.914Zm0-11.931a4.474,4.474,0,1,0,4.474,4.475A4.479,4.479,0,0,0,7.458,2.982Z" transform="translate(4.785 0.471)" fill="url(#radial-gradient)"/>
        <path id="Subtraction_1" data-name="Subtraction 1" d="M7.458,14.914a7.457,7.457,0,1,1,7.456-7.456A7.465,7.465,0,0,1,7.458,14.914Zm0-11.931a4.474,4.474,0,1,0,4.474,4.475A4.479,4.479,0,0,0,7.458,2.982Z" transform="translate(52.297 0)" fill="url(#radial-gradient)"/>
      </g>
      <path id="Path_85" data-name="Path 85" d="M10.095.393h5.624c4.157,0,10.624,2.63,10.624,6.787V9.062a7.526,7.526,0,0,1-7.526,7.526H7.526A7.526,7.526,0,0,1,0,9.062V7.18C0,3.023,5.938.393,10.095.393Z" transform="translate(22.564 32.112)" fill="url(#linear-gradient)"/>
      <rect id="Rectangle_55" data-name="Rectangle 55" width="11.261" height="20.697" rx="5.631" transform="translate(30.132 44.885)" fill="url(#linear-gradient-2)"/>
      <g id="Group_12" data-name="Group 12" transform="translate(20.812 8.237)">
        <path id="Path_77" data-name="Path 77" d="M302.545,442.275c0-.639,0-1.278,0-1.917,0-.515.236-.78.682-.788.463-.009.723.273.726.8,0,.916.019,1.832,0,2.747-.008.385.129.527.509.515.587-.018,1.175-.012,1.762,0,.527.011.766.244.76.7-.006.437-.277.7-.781.7q-1.425.016-2.85,0c-.554-.007-.8-.274-.8-.845C302.541,443.554,302.546,442.914,302.545,442.275Z" transform="translate(-302.544 -422.276)" fill="#07f"/>
        <path id="Path_78" data-name="Path 78" d="M302.545,275.883c0-.657-.008-1.314,0-1.971a.673.673,0,0,1,.735-.746c1-.013,2-.007,3.007,0a.62.62,0,0,1,.685.72.64.64,0,0,1-.725.69c-.6.006-1.21.014-1.814,0-.359-.011-.489.126-.482.485.017.916.008,1.832,0,2.749,0,.532-.264.827-.708.825s-.7-.3-.7-.833C302.541,277.162,302.545,276.523,302.545,275.883Z" transform="translate(-302.542 -273.156)" fill="#07f"/>
        <path id="Path_79" data-name="Path 79" d="M551.481,275.893c0,.657.008,1.314,0,1.971a.674.674,0,0,1-.729.748.665.665,0,0,1-.68-.748c0-.934-.015-1.867.005-2.8.008-.388-.135-.521-.513-.508-.587.02-1.175.013-1.763,0-.507-.01-.759-.259-.755-.716s.247-.692.775-.7q1.426-.014,2.852,0c.57.006.8.252.81.831.007.64,0,1.279,0,1.919Z" transform="translate(-521.638 -273.136)" fill="#07f"/>
        <path id="Path_80" data-name="Path 80" d="M551.453,442.34c0,.64,0,1.279,0,1.919-.006.57-.252.836-.808.842q-1.425.017-2.851,0a.694.694,0,0,1-.781-.76c.019-.444.276-.651.815-.653.587,0,1.175-.009,1.762,0,.33.007.461-.122.455-.46-.015-.916-.011-1.832,0-2.748.007-.61.229-.855.728-.844.474.01.671.249.675.834,0,.622,0,1.245,0,1.867Z" transform="translate(-521.61 -422.338)" fill="#07f"/>
      </g>
      <circle id="Ellipse_15" data-name="Ellipse 15" cx="8.08" cy="8.08" r="8.08" transform="translate(38.801 31.451) rotate(-150)" fill="url(#linear-gradient-3)"/>
      <g id="Rectangle_63" data-name="Rectangle 63" transform="translate(58.848 5.002)" fill="none" stroke="#161616" stroke-width="2">
        <rect width="10.773" height="9.619" stroke="none"/>
        <rect x="1" y="1" width="8.773" height="7.619" fill="none"/>
      </g>
      <rect id="Rectangle_64" data-name="Rectangle 64" width="5.387" height="5.002" transform="translate(69.621)" fill="#161616"/>
      <rect id="Rectangle_65" data-name="Rectangle 65" width="5.387" height="5.002" transform="translate(69.621 14.621)" fill="#161616"/>
      <rect id="Rectangle_66" data-name="Rectangle 66" width="5.387" height="5.002" transform="translate(53.461 15.006)" fill="#161616"/>
      <path id="opensource" d="M12.257,17.553l-1.931-5.331a3.375,3.375,0,0,0,2.143-3.153,3.387,3.387,0,0,0-3.4-3.4,3.387,3.387,0,0,0-3.4,3.4,3.377,3.377,0,0,0,2.143,3.153L5.88,17.553a9.049,9.049,0,0,1-4.242-3.3A8.748,8.748,0,0,1,0,9.069,8.9,8.9,0,0,1,.717,5.544,8.873,8.873,0,0,1,5.544.717a9.017,9.017,0,0,1,7.049,0A8.873,8.873,0,0,1,17.42,5.544a8.9,8.9,0,0,1,.717,3.525A8.748,8.748,0,0,1,16.5,14.249,9.049,9.049,0,0,1,12.257,17.553Z" transform="translate(26.84 10.004)" fill="#07f"/>
    </g>
  </g>
</svg>
