<svg xmlns="http://www.w3.org/2000/svg" xmlns:xlink="http://www.w3.org/1999/xlink" width="254" height="323.593" viewBox="0 0 254 323.593">
  <defs>
    <clipPath id="clip-path">
      <rect id="Rectangle_52" data-name="Rectangle 52" width="88.872" height="125.777" transform="translate(0 0)" fill="#fff" stroke="#07f" stroke-width="8.75"/>
    </clipPath>
    <clipPath id="clip-path-2">
      <rect id="Rectangle_53" data-name="Rectangle 53" width="88.119" height="125.777" transform="translate(0 0)" fill="#fff" stroke="#07f" stroke-width="8.75"/>
    </clipPath>
    <radialGradient id="radial-gradient" cx="0.7" cy="0.5" r="0.5" gradientUnits="objectBoundingBox">
      <stop offset="0" stop-color="#07f" stop-opacity="0"/>
      <stop offset="1" stop-color="#07f"/>
    </radialGradient>
    <linearGradient id="linear-gradient" x1="0.5" x2="0.5" y2="1" gradientUnits="objectBoundingBox">
      <stop offset="0" stop-color="#07f"/>
      <stop offset="1" stop-color="#07f"/>
    </linearGradient>
    <linearGradient id="linear-gradient-2" x1="0.5" x2="0.5" y2="1" gradientUnits="objectBoundingBox">
      <stop offset="0" stop-color="#07f"/>
      <stop offset="0.441" stop-color="#07f"/>
      <stop offset="1" stop-color="#07f" stop-opacity="0"/>
    </linearGradient>
    <linearGradient id="linear-gradient-3" x1="0.5" x2="0.5" y2="1.417" gradientUnits="objectBoundingBox">
      <stop offset="0" stop-color="#07f"/>
      <stop offset="0.325" stop-color="#07f"/>
      <stop offset="1" stop-color="#07f" stop-opacity="0"/>
    </linearGradient>
    <filter id="People_Metrics" x="0" y="173.593" width="254" height="150" filterUnits="userSpaceOnUse">
      <feOffset dy="3" input="SourceAlpha"/>
      <feGaussianBlur stdDeviation="3" result="blur"/>
      <feFlood flood-opacity="0.161"/>
      <feComposite operator="in" in2="blur"/>
      <feComposite in="SourceGraphic"/>
    </filter>
  </defs>
  <g id="logo" transform="translate(-261 -139.204)">
    <g id="Group_17" data-name="Group 17" transform="translate(302.482 139.204)">
      <g id="Group_15" data-name="Group 15" transform="translate(0 64.513)">
        <g id="Group_14" data-name="Group 14" transform="translate(0 9.651)">
          <g id="Mask_Group_1" data-name="Mask Group 1" transform="translate(176.991 125.777) rotate(180)" clip-path="url(#clip-path)">
            <path id="Path_83" data-name="Path 83" d="M80,113.582c-11.979,0-23.8-1.853-30.286-5.973-5.034-3.2-5.931-7.041-5.8-9.7.182-3.608.3-8.689.374-14.48a148.878,148.878,0,0,1-15.78.4C15.317,83.356-.335,80.8.005,71.3.424,59.6.007,4.75,0,4.2a4.165,4.165,0,0,1,8.331-.064c.017,2.264.423,55.583,0,67.461.481.491,5.257,3.2,19.239,3.857a121.538,121.538,0,0,0,16.787-.383c.09-18.24-.17-39.5-.445-45.059a9.38,9.38,0,0,1,4.805-8.64c4.691-2.825,12.112-2.812,16.894.029a9.394,9.394,0,0,1,4.917,8.586c-.178,4.1-.088,11.753,0,19.659.093,8.246.186,16.762,0,21.949-.222,6.194-8.65,9.295-17.9,10.83-.071,6.376-.2,11.99-.393,15.9-.043.86,1.2,1.78,1.941,2.252,9.94,6.309,42.456,6.248,54.362-.1,2.046-1.091,2.8-2.072,2.814-2.465.086-3.408.108-8.637.1-14.724-8.332-1.507-16.5-4.756-16.741-11.693-.221-6.3-.1-15.021.006-23.129.1-7.54.2-14.539,0-18.438a8.657,8.657,0,0,1,4.4-8.082c4.4-2.618,11.5-2.43,16.169.428a8.376,8.376,0,0,1,4.4,7.7c-.2,3.159-.107,17.342-.013,31.058.034,4.951.069,10.014.092,14.822q1.647.127,3.482.2c16.523.639,27.471-2.98,28.465-5.018.32-11.267-.035-66.388-.039-66.943a4.165,4.165,0,1,1,8.331-.054c.015,2.274.36,55.834,0,67.437-.373,11.986-25.269,12.965-32.89,12.98-1.715,0-4.318-.041-7.319-.256.007,5.741-.017,10.658-.1,13.919-.067,2.661-1.375,6.487-7.221,9.6C105.567,111.5,92.691,113.581,80,113.582ZM106.564,28.44q-.292,0-.593.017c-1.914.107-2.83.71-2.931.906.2,4.24.1,11.447,0,19.213-.108,7.967-.227,16.535-.01,22.725.281.687,2.765,2.309,8.383,3.506-.023-4.442-.055-9.076-.086-13.616-.1-15.131-.193-28.2.03-31.654A10.428,10.428,0,0,0,106.564,28.44Zm-49.482-.85a8.248,8.248,0,0,0-4.067.917c-.812.489-.794.837-.782,1.092.271,5.5.529,26.17.456,44.339,5.258-.972,8.847-2.231,9.725-3.363-.026-4.373-.123-12.736-.214-20.836s-.176-15.922.007-20.115c.008-.19.024-.543-.85-1.062A8.76,8.76,0,0,0,57.082,27.59Z" transform="translate(9.286 6.292)" fill="#07f"/>
          </g>
          <g id="Mask_Group_2" data-name="Mask Group 2" transform="translate(88.119 125.777) rotate(180)" clip-path="url(#clip-path-2)">
            <path id="Path_84" data-name="Path 84" d="M154.139,113.55h-.027a4.165,4.165,0,0,1-4.138-4.192c0-.555.355-55.677,0-67.125-.943-1.887-11.816-5.51-28.264-4.829q-1.681.07-3.2.188c-.023,4.809-.057,9.873-.091,14.826-.093,13.717-.189,27.9.013,31.061a8.4,8.4,0,0,1-4.408,7.724c-4.614,2.822-11.63,3.008-15.972.423a8.673,8.673,0,0,1-4.4-8.1c.2-3.9.1-10.9,0-18.441-.109-8.108-.224-16.827-.006-23.127.24-6.931,8.313-10.181,16.556-11.69.012-6.09-.009-11.321-.095-14.73-.009-.348-.613-1.318-2.836-2.505-11.723-6.258-43.763-6.32-53.566-.1-.753.478-2.011,1.411-1.966,2.3.195,3.909.319,9.527.389,15.9,9.15,1.538,17.486,4.638,17.705,10.824.184,5.187.091,13.7,0,21.947-.088,7.908-.177,15.564,0,19.662a9.415,9.415,0,0,1-4.922,8.606c-4.722,2.8-12.049,2.817-16.682.029a9.4,9.4,0,0,1-4.81-8.659c.271-5.561.529-26.845.44-45.094A123.484,123.484,0,0,0,27.281,38.1c-12.753.608-18.331,3.123-19.034,4.246.5,11.489.1,64.807.087,67.071A4.165,4.165,0,0,1,0,109.353c0-.553.417-55.4,0-67.1-.337-9.518,15.217-12.069,28.324-12.534a145.709,145.709,0,0,1,15.465.405c-.071-5.791-.19-10.872-.37-14.48-.133-2.677.769-6.542,5.826-9.748,13.212-8.377,48.741-7.261,61.951-.21,5.864,3.13,7.174,6.973,7.241,9.646.082,3.26.105,8.175.1,13.914,2.947-.211,5.5-.255,7.187-.252,7.549.014,32.206.993,32.576,12.981.358,11.6.017,65.161,0,67.435A4.166,4.166,0,0,1,154.139,113.55ZM52.2,39.5c.074,18.193-.181,38.937-.45,44.443-.013.263-.03.624.785,1.115a9.29,9.29,0,0,0,8.132-.054c.877-.521.862-.888.853-1.085-.18-4.193-.1-12.024-.007-20.113s.186-16.464.005-21.559C60.743,41.444,57.295,40.374,52.2,39.5Zm57.981-.747c-5.511,1.2-7.934,2.824-8.208,3.548-.2,6.134-.087,14.7.02,22.67.1,7.764.2,14.97-.013,18.986-.009.174-.024.464,1.046.814,2.8.916,6.578-.186,7.173-1.095-.295-3.124-.206-16.19-.1-31.319C110.121,47.826,110.153,43.2,110.176,38.758Z" transform="translate(78.769 119.842) rotate(-180)" fill="#07f"/>
          </g>
        </g>
        <path id="Subtraction_3" data-name="Subtraction 3" d="M18.454,36.9A18.452,18.452,0,1,1,36.9,18.454,18.473,18.473,0,0,1,18.454,36.9Zm0-29.524a11.072,11.072,0,1,0,11.07,11.074A11.085,11.085,0,0,0,18.454,7.38Z" transform="translate(11.84 1.165)" fill="url(#radial-gradient)"/>
        <path id="Subtraction_1" data-name="Subtraction 1" d="M18.454,36.9A18.452,18.452,0,1,1,36.9,18.454,18.473,18.473,0,0,1,18.454,36.9Zm0-29.524a11.072,11.072,0,1,0,11.07,11.074A11.085,11.085,0,0,0,18.454,7.38Z" transform="translate(129.411 0)" fill="url(#radial-gradient)"/>
      </g>
      <path id="Path_85" data-name="Path 85" d="M24.98.393H38.9C49.182.393,65.185,6.9,65.185,17.188v4.656A18.624,18.624,0,0,1,46.561,40.468H18.624A18.624,18.624,0,0,1,0,21.844V17.188C0,6.9,14.694.393,24.98.393Z" transform="translate(55.835 80.04)" fill="url(#linear-gradient)"/>
      <rect id="Rectangle_55" data-name="Rectangle 55" width="27.867" height="51.214" rx="11" transform="translate(74.562 111.068)" fill="url(#linear-gradient-2)"/>
      <g id="Group_12" data-name="Group 12" transform="translate(51.724 18.804)">
        <path id="Path_77" data-name="Path 77" d="M302.548,446.149c0-1.554-.009-3.108,0-4.663.008-1.252.574-1.9,1.658-1.917,1.127-.022,1.759.663,1.766,1.943.012,2.227.046,4.455,0,6.681-.02.935.314,1.281,1.237,1.252,1.427-.044,2.857-.03,4.284,0,1.281.028,1.862.594,1.848,1.711-.014,1.064-.674,1.7-1.9,1.709q-3.466.04-6.931,0c-1.347-.017-1.943-.666-1.957-2.055C302.537,449.259,302.549,447.7,302.548,446.149Z" transform="translate(-302.543 -397.517)" fill="#07f"/>
        <path id="Path_78" data-name="Path 78" d="M302.549,279.783c0-1.6-.02-3.2.006-4.793a1.636,1.636,0,0,1,1.787-1.814c2.437-.032,4.875-.017,7.312.01a1.507,1.507,0,0,1,1.666,1.75,1.557,1.557,0,0,1-1.763,1.678c-1.471.014-2.942.035-4.412-.009-.873-.026-1.189.305-1.173,1.179.04,2.228.021,4.456.007,6.684-.008,1.294-.641,2.012-1.723,2.007s-1.693-.723-1.7-2.026C302.539,282.894,302.549,281.339,302.549,279.783Z" transform="translate(-302.542 -273.153)" fill="#07f"/>
        <path id="Path_79" data-name="Path 79" d="M557.833,279.84c0,1.6.019,3.2-.007,4.792a1.638,1.638,0,0,1-1.772,1.818,1.618,1.618,0,0,1-1.654-1.819c0-2.27-.036-4.541.013-6.81.02-.943-.33-1.267-1.248-1.236-1.427.049-2.857.031-4.286,0-1.233-.024-1.846-.631-1.836-1.74s.6-1.683,1.885-1.7q3.466-.035,6.934,0c1.385.014,1.955.614,1.971,2.02.017,1.556,0,3.111,0,4.667Z" transform="translate(-485.266 -273.136)" fill="#07f"/>
        <path id="Path_80" data-name="Path 80" d="M557.812,446.208c0,1.555.012,3.111,0,4.666-.014,1.385-.613,2.032-1.964,2.048q-3.466.042-6.932,0a1.687,1.687,0,0,1-1.9-1.848c.047-1.079.672-1.584,1.981-1.588,1.428,0,2.857-.021,4.284.008.8.016,1.121-.3,1.107-1.118-.035-2.226-.027-4.454,0-6.681.017-1.483.557-2.078,1.77-2.052,1.152.024,1.631.6,1.642,2.029.011,1.513,0,3.026,0,4.539Z" transform="translate(-485.242 -397.569)" fill="#07f"/>
      </g>
      <circle id="Ellipse_15" data-name="Ellipse 15" cx="19.994" cy="19.994" r="19.994" transform="translate(96.013 77.827) rotate(-150)" fill="url(#linear-gradient-3)"/>
      <path id="Rectangle_63" data-name="Rectangle 63" d="M6,6V17.8H20.659V6H6M0,0H26.659V23.8H0Z" transform="translate(145.621 12.377)" fill="#161616"/>
      <rect id="Rectangle_64" data-name="Rectangle 64" width="13.329" height="12.377" transform="translate(172.28 0)" fill="#161616"/>
      <rect id="Rectangle_65" data-name="Rectangle 65" width="13.329" height="12.377" transform="translate(172.28 36.18)" fill="#161616"/>
      <rect id="Rectangle_66" data-name="Rectangle 66" width="13.329" height="12.377" transform="translate(132.292 37.132)" fill="#161616"/>
      <path id="opensource" d="M30.329,43.434,25.552,30.242a8.352,8.352,0,0,0,5.3-7.8,8.381,8.381,0,0,0-8.415-8.415,8.381,8.381,0,0,0-8.415,8.415,8.356,8.356,0,0,0,5.3,7.8L14.551,43.434a22.392,22.392,0,0,1-10.5-8.175A21.646,21.646,0,0,1,0,22.44a22.013,22.013,0,0,1,1.775-8.722A21.957,21.957,0,0,1,13.719,1.775a22.312,22.312,0,0,1,17.444,0A21.957,21.957,0,0,1,43.105,13.719a22.013,22.013,0,0,1,1.775,8.722,21.646,21.646,0,0,1-4.054,12.82A22.392,22.392,0,0,1,30.329,43.434Z" transform="translate(66.417 24.754)" fill="#07f"/>
    </g>
    <g transform="matrix(1, 0, 0, 1, 261, 139.2)" filter="url(#People_Metrics)">
      <text id="People_Metrics-2" data-name="People
Metrics" transform="translate(127 245.59)" fill="#07f" font-size="61" font-family="SegoeUI, Segoe UI" letter-spacing="0.08em"><tspan x="-114.572" y="0">PEOPLE</tspan><tspan fill="#161616" font-size="53"><tspan x="-117.193" y="53">METRICS</tspan></tspan></text>
    </g>
  </g>
</svg>
